# xmcd CD database file
# Copyright (C) 1996 Ti Kan
#
# Track frame offsets:
#	150
#	15035
#	30425
#	42377
#	58495
#	74827
#	92510
#	112220
#	123132
#	140982
#	155480
#	168607
#	184705
#	203730
#	216882
#	231927
#
# Disc length: 3284 seconds
#
# Revision: 1
# Processed by: cddbd v1.4b41PL1 Copyright (c) Steve Scherf et al.
# Submitted via: EasyCD 2.21
#
DISCID=eb0cd210
DTITLE=Various Artist - No. 1 Country Hit Mix
DYEAR=1900
DGENRE=
TTITLE0=Take a Little Trip
TTITLE1=Achy Breaky Heart
TTITLE2=It's a Little Too Late
TTITLE3=Can I Trust You With My Heart
TTITLE4=Sticks And Stones
TTITLE5=Too Busy Being in Love
TTITLE6=Neon Moon
TTITLE7=She's Got the Rhythm (and I Got the Blues)
TTITLE8=No One Else on Earth
TTITLE9=In This Life
TTITLE10=She Don't Know She's Beautiful
TTITLE11=When My Ship Comes In
TTITLE12=I'll Think of Something
TTITLE13=Straight Tequila Night
TTITLE14=If There Hadn't Been You
TTITLE15=Some Girls Do
EXTD=
EXTT0=
EXTT1=
EXTT2=
EXTT3=
EXTT4=
EXTT5=
EXTT6=
EXTT7=
EXTT8=
EXTT9=
EXTT10=
EXTT11=
EXTT12=
EXTT13=
EXTT14=
EXTT15=
PLAYORDER=
